<?xml version="1.0" encoding="UTF-8"?><svg id="Layer_1" xmlns="http://www.w3.org/2000/svg" viewBox="0 0 916.06 253.08"><defs><style>.cls-1{fill:#fff;stroke:#fff;stroke-miterlimit:10;}</style></defs><path class="cls-1" d="m94.5,252.54c-2.02,0-4.53-.02-7.53-.07-.44,0-.91,0-1.42-.01-5.47-.02-15.66-.06-25.05-6.35-10.92-7.31-17.17-20.56-18.58-39.36-2.79-37.19-3.3-55.82-3.32-56.6v-.17c-.36-33.26-2.89-78.95-2.92-79.41l-.02-.6v-28.59C35.67,21.4,48.99,1.23,78.75,1.23h129.73c24.8,0,37.21,14.24,37.94,43.54.72,28.71,2.89,58.92,2.91,59.23l.02.35c.37,9.16,2.93,74.03,2.93,74.03v.31c.07,5.53.36,33.35-.02,38.33-.02.28-.02.67-.02,1.11-.05,3.92-.15,12.07-4.66,19.57-3.92,6.52-12.27,14.35-29.78,14.6-25.86.36-57.86,0-58.18,0l-59.05.16c-.63.02-2.65.07-6.06.07Zm-34.25-102.89c.04,1.36.61,20.08,3.27,55.47,1.92,25.6,13.12,25.64,22.12,25.68.62,0,1.2,0,1.74.01,8.3.16,12.56,0,12.6,0h.36s59.37-.17,59.37-.17c.47,0,32.2.36,57.78,0,12.31-.17,12.99-4.97,13.09-12.79.01-1.01.03-1.85.08-2.5.21-2.68.15-20.52-.03-36.28-.14-3.46-2.54-64.22-2.92-73.7-.18-2.58-2.24-32-2.94-60.07-.56-22.43-8.2-22.43-16.3-22.43H78.75c-9.77,0-21.42,3.21-21.42,18.49v28.29c.22,4.07,2.58,47.68,2.93,79.98Z"/><path class="cls-1" d="m64.04,252.58c-4.09,0-8.32,0-11.8-.03h-1.34c-6.45.02-18.46.06-29.28-7.5-12.69-8.86-19.32-25.01-19.72-48-.54-20.89-1.36-46.86-1.37-47.12v-.34s-.01-26.42-.01-26.42c-.07-5.63-.22-18.82,9.22-28.17,6.2-6.14,14.94-9.16,26.02-8.91,24.43.51,33.56.38,34.47.37h.3c11.71-.45,11.71-3.9,11.71-6.95,0-16.43-.33-41.72-.36-44.03-.1-2.63.09-12.85,8.34-21.73C98.13,5.23,110.39.97,126.84,1.05c35.37.18,73.75-.54,74.13-.55h.21s40.11,0,40.11,0c16.09,0,40.89,11.15,43.25,41.88,2.14,27.77,2.23,49.45,2.23,51.62.17,6.36.72,31.56.73,35.35l.02.35c.66,10.68-2.16,19.38-8.38,25.86-7.39,7.7-18.85,11.48-34.09,11.16-2.18-.06-4.42-.03-6.68-.07-11.38-.18-24.28-.36-29.37,4.61-.83.81-3.36,3.29-3.41,11.44-.02,3.55.05,7.19.12,10.7.36,17.54.73,35.68-11.23,47.71-7.86,7.91-19.56,11.63-35.7,11.41-25.68,0-79.01,0-79.01,0-.09,0-7.64.03-15.75.03Zm-11.68-21.68c10.27.06,27.21,0,27.38,0,.04,0,53.36,0,79.2,0,10.01.12,16.74-1.55,20.19-5.02,5.48-5.51,5.22-18.38,4.94-32-.07-3.65-.15-7.43-.13-11.27.07-11.4,3.4-20.41,9.91-26.78,11.53-11.29,29.22-11.03,44.84-10.8,2.18.03,4.36.08,6.46.06h.23c8.74.2,15.18-1.42,18.14-4.5,2.8-2.91,2.52-7.38,2.39-9.53-.04-.66-.06-1.18-.06-1.52,0-2.63-.53-27.74-.73-35.07v-.29c0-.22-.03-22.32-2.17-50.11-.65-8.52-3.84-14.46-9.73-18.16-4.86-3.06-10.26-3.73-11.93-3.73h-40.01c-2.27.04-39.83.73-74.55.55-9.77-.11-16.79,1.87-20.42,5.54-2.52,2.54-2.77,5.49-2.79,6.2l.07.52-.06.04c0,.27.37,27.21.37,44.49,0,8.23-3.17,27.49-32.57,28.58l-.57.02c-.36,0-9.14.18-35.45-.37-3.42-.07-8,.33-10.33,2.64-2.92,2.9-2.85,9.17-2.81,12.54v1.25s0,25.25,0,25.25c.07,2.3.85,27.02,1.37,47.17.6,34.4,16.01,34.37,27.28,34.32h1.54ZM103.5,34.3h0Z"/><path class="cls-1" d="m327.38,116.37c0-16.37,9.41-29.12,28.58-29.12s28.47,12.86,28.47,29.12-9.41,29.34-28.47,29.34-28.58-12.75-28.58-29.34Zm28.58,22.2c12.82,0,19.28-6.7,19.28-22.09s-6.46-22.09-19.28-22.09-19.39,6.59-19.39,22.09,6.58,22.09,19.39,22.09Z"/><path class="cls-1" d="m355.96,146.45c-18.08,0-29.32-11.52-29.32-30.08s11.23-29.85,29.32-29.85,29.2,11.44,29.2,29.85-11.19,30.08-29.2,30.08Zm0-58.46c-17.17,0-27.84,10.88-27.84,28.38s10.67,28.6,27.84,28.6,27.73-10.96,27.73-28.6-10.63-28.38-27.73-28.38Zm0,51.31c-13.54,0-20.13-7.47-20.13-22.82s6.58-22.82,20.13-22.82,20.02,7.25,20.02,22.82-6.55,22.82-20.02,22.82Zm0-44.17c-12.73,0-18.66,6.78-18.66,21.35s5.93,21.35,18.66,21.35,18.54-6.78,18.54-21.35-5.72-21.35-18.54-21.35Z"/><path class="cls-1" d="m400.99,133.73v32.2h-9.07v-76.92h9.07v10.33c3.86-7.69,11-12.09,21.43-12.09,17.69,0,25.86,12.42,25.86,29.23s-8.17,29.23-25.86,29.23c-10.43,0-17.58-4.39-21.43-11.98Zm19.62,4.84c12.82,0,18.49-7.25,18.49-22.09s-5.67-22.09-18.49-22.09c-12.02,0-19.62,6.59-19.62,22.09s7.6,22.09,19.62,22.09Z"/><path class="cls-1" d="m401.72,166.67h-10.54v-78.39h10.54v8.31c4.32-6.6,11.42-10.06,20.7-10.06,16.65,0,26.59,11.2,26.59,29.97s-9.94,29.97-26.59,29.97c-9.26,0-16.36-3.44-20.7-9.99v30.21Zm-9.07-1.47h7.6v-34.53l1.39,2.74c3.85,7.57,11.04,11.58,20.78,11.58,15.96,0,25.12-10.38,25.12-28.49s-9.16-28.49-25.12-28.49c-9.9,0-16.89,3.93-20.78,11.68l-1.39,2.78v-12.7h-7.6v75.45Zm27.96-25.89c-13.32,0-20.36-7.89-20.36-22.82s7.04-22.82,20.36-22.82,19.22,7.47,19.22,22.82-6.11,22.82-19.22,22.82Zm0-44.17c-12.53,0-18.88,7.18-18.88,21.35s6.35,21.35,18.88,21.35,17.75-6.58,17.75-21.35-5.64-21.35-17.75-21.35Z"/><path class="cls-1" d="m456.33,124.06v-35.05h9.07v34.06c0,12.2,5.56,15.38,14.18,15.38,11.79,0,18.49-10.22,18.49-28.46v-20.99h9.07v54.94h-9.07v-13.84c-3.4,9.67-10.09,15.6-21.09,15.6-14.29,0-20.64-7.25-20.64-21.65Z"/><path class="cls-1" d="m476.97,146.45c-14.38,0-21.38-7.32-21.38-22.38v-35.79h10.55v34.8c0,12.87,6.46,14.65,13.44,14.65,11.45,0,17.75-9.85,17.75-27.72v-21.72h10.55v56.42h-10.55v-10.88c-4.05,8.39-10.88,12.63-20.36,12.63Zm-19.9-56.7v34.32c0,14.27,6.32,20.91,19.9,20.91,10.01,0,16.87-5.08,20.4-15.11l1.43-4.07v17.42h7.6v-53.47h-7.6v20.25c0,18.56-7.01,29.2-19.22,29.2-10.45,0-14.91-4.82-14.91-16.12v-33.33h-7.6Z"/><path class="cls-1" d="m541.85,139.01c9.98,0,13.95-3.41,13.95-9.56,0-5.27-3.18-8.13-10.32-9.12l-13.16-1.87c-9.98-1.32-15.42-6.37-15.42-14.83,0-10.22,8.28-16.48,22.68-16.48s23.25,7.25,24.04,17.58h-8.96c-.57-5.71-4.99-10.88-15.31-10.88-9.64,0-13.61,3.74-13.61,9.12,0,3.85,1.93,7.14,9.07,8.13l12.13,1.65c12.93,1.87,17.69,7.25,17.69,16.26,0,11.21-7.94,16.7-23.02,16.7-18.6,0-25.97-8.57-26.2-20.11h8.39c.57,7.47,4.99,13.41,18.03,13.41Z"/><path class="cls-1" d="m541.62,146.45c-17.1,0-26.67-7.4-26.93-20.83v-.75s9.81,0,9.81,0l.05.68c.65,8.56,6.31,12.73,17.3,12.73,11.84,0,13.21-5.03,13.21-8.82,0-4.94-2.9-7.45-9.68-8.39l-13.16-1.87c-10.5-1.39-16.06-6.77-16.06-15.56,0-10.78,8.75-17.22,23.42-17.22s23.91,7,24.78,18.26l.06.79h-10.42l-.07-.66c-.3-3.07-2.34-10.22-14.58-10.22-5.87,0-12.87,1.46-12.87,8.39,0,2.68.87,6.36,8.44,7.4l12.13,1.65c12.68,1.83,18.33,7.07,18.33,16.99,0,11.57-7.99,17.44-23.76,17.44Zm-25.44-20.11c.58,12.2,9.36,18.64,25.44,18.64,14.79,0,22.29-5.37,22.29-15.97,0-9.16-5.1-13.81-17.06-15.53l-12.13-1.65c-6.53-.9-9.71-3.8-9.71-8.86,0-3.68,1.86-9.86,14.34-9.86,9.04,0,14.95,4.05,15.96,10.88h7.5c-1.18-9.96-10-16.11-23.23-16.11s-21.95,5.89-21.95,15.75c0,7.95,5.11,12.83,14.78,14.1l13.16,1.87c7.47,1.04,10.95,4.16,10.95,9.85,0,6.93-4.8,10.3-14.69,10.3-11.45,0-17.74-4.51-18.7-13.41h-6.96Z"/><path class="cls-1" d="m618.06,113.19v6.7h-45.36v-6.7h45.36Z"/><path class="cls-1" d="m618.8,120.63h-46.84v-8.17h46.84v8.17Zm-45.36-1.47h43.89v-5.23h-43.89v5.23Z"/><path class="cls-1" d="m650.84,139.01c9.98,0,13.95-3.41,13.95-9.56,0-5.27-3.18-8.13-10.32-9.12l-13.16-1.87c-9.98-1.32-15.42-6.37-15.42-14.83,0-10.22,8.28-16.48,22.68-16.48s23.25,7.25,24.04,17.58h-8.96c-.57-5.71-4.99-10.88-15.31-10.88-9.64,0-13.61,3.74-13.61,9.12,0,3.85,1.93,7.14,9.07,8.13l12.13,1.65c12.93,1.87,17.69,7.25,17.69,16.26,0,11.21-7.94,16.7-23.02,16.7-18.6,0-25.97-8.57-26.2-20.11h8.39c.57,7.47,4.99,13.41,18.03,13.41Z"/><path class="cls-1" d="m650.61,146.45c-17.1,0-26.67-7.4-26.93-20.83v-.75s9.81,0,9.81,0l.05.68c.65,8.56,6.31,12.73,17.3,12.73,11.84,0,13.21-5.03,13.21-8.82,0-4.94-2.9-7.45-9.68-8.39l-13.16-1.87c-10.5-1.39-16.06-6.77-16.06-15.56,0-10.78,8.75-17.22,23.42-17.22s23.91,7,24.78,18.26l.06.79h-10.42l-.07-.66c-.3-3.07-2.33-10.22-14.58-10.22-5.87,0-12.87,1.46-12.87,8.39,0,2.68.87,6.36,8.44,7.4l12.13,1.65c12.68,1.83,18.33,7.07,18.33,16.99,0,11.57-7.99,17.44-23.76,17.44Zm-25.44-20.11c.58,12.2,9.36,18.64,25.44,18.64,14.79,0,22.29-5.37,22.29-15.97,0-9.16-5.1-13.81-17.06-15.53l-12.13-1.65c-6.53-.9-9.71-3.8-9.71-8.86,0-3.68,1.86-9.86,14.35-9.86,9.04,0,14.95,4.05,15.96,10.88h7.5c-1.18-9.96-10-16.11-23.23-16.11s-21.95,5.89-21.95,15.75c0,7.95,5.11,12.83,14.78,14.1l13.16,1.87c7.47,1.04,10.95,4.16,10.95,9.85,0,6.93-4.8,10.3-14.69,10.3-11.45,0-17.74-4.51-18.7-13.41h-6.96Z"/><path class="cls-1" d="m691.22,133.73v32.2h-9.07v-76.92h9.07v10.33c3.86-7.69,11-12.09,21.43-12.09,17.69,0,25.86,12.42,25.86,29.23s-8.17,29.23-25.86,29.23c-10.43,0-17.58-4.39-21.43-11.98Zm19.62,4.84c12.81,0,18.48-7.25,18.48-22.09s-5.67-22.09-18.48-22.09c-12.02,0-19.62,6.59-19.62,22.09s7.6,22.09,19.62,22.09Z"/><path class="cls-1" d="m691.95,166.67h-10.54v-78.39h10.54v8.31c4.32-6.6,11.42-10.06,20.7-10.06,16.65,0,26.59,11.2,26.59,29.97s-9.94,29.97-26.59,29.97c-9.26,0-16.36-3.44-20.7-9.99v30.21Zm-9.07-1.47h7.6v-34.54l1.39,2.74c3.85,7.57,11.04,11.58,20.78,11.58,15.96,0,25.12-10.38,25.12-28.49s-9.16-28.49-25.12-28.49c-9.9,0-16.89,3.93-20.78,11.68l-1.4,2.78v-12.7h-7.6v75.45Zm27.96-25.89c-13.32,0-20.36-7.89-20.36-22.82s7.04-22.82,20.36-22.82,19.22,7.47,19.22,22.82-6.11,22.82-19.22,22.82Zm0-44.17c-12.53,0-18.88,7.18-18.88,21.35s6.35,21.35,18.88,21.35,17.75-6.58,17.75-21.35-5.64-21.35-17.75-21.35Z"/><path class="cls-1" d="m744.41,129.45c0-8.9,4.88-14.51,17.24-16.48l14.4-2.31c5.9-.99,8.39-2.53,8.39-6.7,0-5.6-2.84-9.89-13.95-9.89s-15.2,5.06-15.76,12.2h-9.07c.34-11.65,8.96-19.12,24.61-19.12s22.45,6.92,22.45,16.81v26.37c0,3.96.23,8.24.68,13.63h-8.17c-.57-4.73-.79-8.79-.79-12.86-2.16,6.59-8.17,14.29-21.32,14.29-10.89,0-18.71-5.49-18.71-15.93Zm20.41,9.01c13.5,0,19.62-10.11,19.62-20.55v-4.72c-2.84,1.98-5.9,2.86-10.21,3.74l-9.41,1.87c-7.71,1.54-11.23,4.39-11.23,10.33,0,6.26,4.65,9.34,11.23,9.34Z"/><path class="cls-1" d="m763.12,146.12c-12,0-19.45-6.39-19.45-16.67s5.67-15.26,17.86-17.21l14.4-2.31c5.88-.99,7.77-2.44,7.77-5.98,0-4.26-1.5-9.15-13.21-9.15-9.5,0-14.41,3.77-15.03,11.52l-.05.68h-10.51l.02-.76c.36-12.42,9.84-19.84,25.34-19.84s23.19,6.4,23.19,17.55v26.37c0,3.82.21,8,.68,13.56l.07.8h-9.62l-.08-.65c-.4-3.29-.64-6.36-.74-9.43-2.54,4.92-8.26,11.51-20.64,11.51Zm7.37-52.79c10.02,0,14.69,3.38,14.69,10.63,0,4.95-3.3,6.47-9.01,7.43l-14.41,2.31c-11.49,1.84-16.62,6.7-16.62,15.75,0,9.52,6.72,15.2,17.98,15.2,14.55,0,19.27-9.64,20.62-13.78l1.44-4.39v4.62c0,4.03.23,7.9.71,12.12h6.71c-.43-5.21-.62-9.22-.62-12.89v-26.37c0-10.37-7.71-16.08-21.72-16.08s-23.15,6.42-23.84,17.65h7.63c.91-8.09,6.44-12.2,16.43-12.2Zm-5.67,45.87c-7.49,0-11.96-3.77-11.96-10.08s3.53-9.4,11.82-11.05l9.41-1.87c4.24-.86,7.23-1.73,9.93-3.62l1.16-.81v6.14c0,10.59-6.29,21.28-20.36,21.28Zm18.88-24.66c-2.6,1.53-5.47,2.33-9.33,3.11l-9.42,1.87c-7.65,1.53-10.63,4.22-10.63,9.61s3.82,8.6,10.49,8.6c13.94,0,18.88-10.67,18.88-19.81v-3.38Z"/><path class="cls-1" d="m827.54,87.25c17.01,0,25.52,9.12,26.42,21.87h-8.5c-1.36-9.01-7.03-14.72-17.58-14.72-12.02,0-19.51,6.26-19.51,22.09s7.26,22.09,19.17,22.09,17.35-6.26,18.49-15.6h8.62c-.68,12.64-9.87,22.75-27.1,22.75-18.6,0-28.35-12.42-28.35-29.23s9.98-29.23,28.35-29.23Z"/><path class="cls-1" d="m827.54,146.45c-17.94,0-29.09-11.48-29.09-29.97s11.42-29.97,29.09-29.97c16.24,0,26.14,8.22,27.16,22.55l.06.79h-9.93l-.09-.63c-1.4-9.22-7.22-14.1-16.85-14.1-12.63,0-18.77,6.98-18.77,21.35s6.03,21.35,18.43,21.35c10.28,0,16.58-5.31,17.76-14.96l.08-.65h10.05l-.04.78c-.77,14.24-11.69,23.44-27.84,23.44Zm0-58.46c-17.03,0-27.62,10.92-27.62,28.49s10.58,28.49,27.62,28.49c15.24,0,25.25-8.13,26.32-21.27h-7.19c-1.47,10.07-8.24,15.6-19.13,15.6-13.39,0-19.9-7.47-19.9-22.82s6.81-22.82,20.24-22.82c10.09,0,16.53,5.22,18.21,14.72h7.08c-1.26-12.97-10.56-20.39-25.62-20.39Z"/><path class="cls-1" d="m859.98,116.37c0-16.37,9.3-29.12,28.13-29.12,17.01,0,26.65,11.32,26.65,27.36,0,1.43,0,2.53-.23,3.85h-45.59c.68,15.06,8.17,20.55,19.51,20.55s16.22-5.05,17.92-11.98h8.28c-1.13,8.35-7.71,18.68-26.54,18.68s-28.13-12.75-28.13-29.34Zm45.93-4.5c-.45-12.64-7.14-17.91-17.69-17.91s-17.81,4.95-19.05,17.91h36.74Z"/><path class="cls-1" d="m888.11,146.45c-18.07,0-28.86-11.24-28.86-30.08s11.06-29.85,28.86-29.85c16.64,0,27.39,11.03,27.39,28.1,0,1.45,0,2.59-.24,3.97l-.11.61h-45.43c.8,12.83,6.94,19.08,18.73,19.08,9.55,0,15.34-3.84,17.2-11.42l.14-.56h9.7l-.11.84c-.61,4.53-4.4,19.32-27.27,19.32Zm0-58.46c-16.89,0-27.39,10.88-27.39,28.38s9.98,28.6,27.39,28.6c20.41,0,24.76-12.24,25.67-17.21h-6.84c-2.19,7.95-8.4,11.98-18.49,11.98-12.98,0-19.6-6.95-20.24-21.25l-.04-.77h45.73c.13-1,.13-1.92.13-3.11,0-16.42-9.93-26.62-25.91-26.62Zm18.57,24.61h-38.32l.08-.81c1.2-12.5,7.67-18.58,19.79-18.58s17.99,6.44,18.43,18.62l.03.76Zm-36.69-1.47h35.15c-.63-10.91-6.32-16.44-16.92-16.44s-16.92,5.23-18.23,16.44Z"/></svg>