<?xml version="1.0" encoding="UTF-8"?><svg id="Layer_2" xmlns="http://www.w3.org/2000/svg" viewBox="0 0 386.66 339.46"><defs><style>.cls-1{fill:#fff;stroke-width:0px;}</style></defs><path class="cls-1" d="m126.14,339.41c-2.72,0-6.1-.02-10.13-.1-.59-.01-1.23-.01-1.91-.02-7.37-.03-21.08-.08-33.73-8.56-14.7-9.85-23.12-27.68-25.02-53.01-3.76-50.08-4.45-75.17-4.48-76.22v-.23c-.49-44.79-3.9-106.32-3.93-106.93l-.02-.81v-38.5C46.91,28.14,64.85.99,104.92.99h174.71c33.4,0,50.11,19.18,51.1,58.63.97,38.67,3.89,79.35,3.91,79.76l.03.47c.49,12.34,3.95,99.7,3.95,99.7v.41c.09,7.44.49,44.91-.03,51.62-.02.38-.02.9-.03,1.5-.07,5.27-.21,16.25-6.27,26.36-5.28,8.78-16.52,19.33-40.11,19.66-34.82.49-77.92,0-78.35,0l-79.52.22c-.85.03-3.57.1-8.16.1Zm-46.12-138.56c.05,1.82.83,27.05,4.4,74.7,2.59,34.48,17.67,34.54,29.78,34.58.84,0,1.62,0,2.34.02,11.18.21,16.91,0,16.97,0h.49s79.95-.23,79.95-.23c.63,0,43.36.49,77.81,0,16.58-.23,17.5-6.7,17.63-17.22.02-1.36.05-2.5.11-3.37.28-3.61.2-27.63-.04-48.85-.18-4.65-3.42-86.49-3.93-99.25-.25-3.47-3.02-43.09-3.97-80.89-.75-30.2-11.05-30.2-21.94-30.2H104.92c-13.16,0-28.85,4.32-28.85,24.9v38.09c.3,5.48,3.47,64.2,3.95,107.71Z"/><path class="cls-1" d="m85.57,339.46c-5.51,0-11.21,0-15.89-.04h-1.8c-8.68.03-24.85.08-39.43-10.1-17.08-11.93-26.02-33.68-26.56-64.64C1.15,236.55.05,201.57.04,201.22v-.46s-.02-35.58-.02-35.58c-.09-7.58-.29-25.34,12.42-37.94,8.35-8.27,20.12-12.33,35.05-12,32.9.69,45.19.52,46.42.5l.4-.02c15.77-.58,15.77-5.24,15.77-9.35,0-22.12-.45-56.19-.49-59.29-.14-3.55.13-17.31,11.24-29.26C131.48,6.37,147.98.63,170.14.74,217.77.98,269.46.01,269.98,0h.28s54.01,0,54.01,0c21.67,0,55.06,15.02,58.24,56.4,2.88,37.4,3,66.59,3,69.52.23,8.57.96,42.5.99,47.61l.03.47c.89,14.38-2.91,26.1-11.28,34.83-9.96,10.37-25.38,15.46-45.91,15.03-2.94-.08-5.96-.04-9-.09-15.33-.24-32.7-.49-39.55,6.21-1.12,1.1-4.52,4.43-4.59,15.41-.03,4.78.07,9.68.17,14.41.48,23.62.98,48.05-15.12,64.25-10.58,10.65-26.35,15.66-48.08,15.36-34.58.01-106.39.01-106.39.01-.12,0-10.29.04-21.21.04Zm-15.72-29.2c13.83.08,36.65,0,36.88,0,.05,0,71.86,0,106.65-.01,13.48.16,22.54-2.09,27.19-6.76,7.38-7.42,7.02-24.75,6.65-43.1-.1-4.92-.2-10.01-.17-15.18.09-15.35,4.58-27.48,13.35-36.07,15.53-15.21,39.35-14.86,60.38-14.54,2.94.04,5.87.11,8.7.09h.31c11.77.28,20.44-1.91,24.43-6.06,3.77-3.92,3.39-9.94,3.22-12.84-.06-.89-.08-1.58-.08-2.05,0-3.54-.72-37.36-.98-47.23v-.39c0-.3-.04-30.06-2.92-67.48-.88-11.47-5.17-19.47-13.1-24.45-6.55-4.12-13.82-5.02-16.06-5.02h-53.88c-3.05.06-53.63.99-100.4.74-13.16-.14-22.61,2.51-27.5,7.46-3.39,3.43-3.73,7.4-3.76,8.35l.1.7-.08.05c0,.36.49,36.64.49,59.92,0,11.08-4.27,37.02-43.86,38.49l-.77.03c-.49.01-12.31.24-47.75-.49-4.61-.09-10.77.44-13.91,3.56-3.94,3.9-3.84,12.35-3.79,16.88v1.68s.01,34.01.01,34.01c.1,3.1,1.14,36.39,1.85,63.52.81,46.33,21.57,46.29,36.74,46.21h2.07ZM138.71,45.52h0Z"/></svg>