<?xml version="1.0" encoding="UTF-8"?><svg id="Layer_1" xmlns="http://www.w3.org/2000/svg" viewBox="0 0 922.57 127.08"><defs><style>.cls-1{fill:#fff;stroke-width:0px;}</style></defs><path class="cls-1" d="m1.93,47.64C1.93,22.04,16.66,2.11,46.63,2.11s44.52,20.11,44.52,45.54-14.72,45.88-44.52,45.88S1.93,73.59,1.93,47.64Zm44.69,34.71c20.04,0,30.15-10.48,30.15-34.54s-10.11-34.54-30.15-34.54-30.33,10.31-30.33,34.54,10.29,34.54,30.33,34.54Z"/><path class="cls-1" d="m46.63,94.31C18.58,94.31,1.15,76.43,1.15,47.65S18.58,1.32,46.63,1.32s45.3,17.75,45.3,46.32-17.36,46.66-45.3,46.66Zm0-91.42C19.54,2.89,2.72,20.04,2.72,47.65s16.83,45.1,43.91,45.1,43.74-17.28,43.74-45.1S73.61,2.89,46.63,2.89Zm0,80.25c-20.93,0-31.11-11.55-31.11-35.32S25.4,12.49,46.63,12.49s30.93,11.22,30.93,35.32-9.83,35.32-30.93,35.32Zm0-69.08c-20.16,0-29.55,10.73-29.55,33.76s9.39,33.76,29.55,33.76,29.37-10.73,29.37-33.76-9.33-33.76-29.37-33.76Z"/><path class="cls-1" d="m46.63,94.68C18.35,94.68.78,76.66.78,47.64S18.35.95,46.63.95s45.67,17.89,45.67,46.69-17.5,47.04-45.67,47.04Zm0-91.42C19.77,3.26,3.09,20.27,3.09,47.64s16.69,44.73,43.54,44.73,43.37-17.14,43.37-44.73S73.38,3.26,46.63,3.26Zm0,80.25c-21.18,0-31.48-11.68-31.48-35.69S25.45,12.12,46.63,12.12s31.3,11.34,31.3,35.69-10.24,35.69-31.3,35.69Zm0-69.08c-19.91,0-29.18,10.61-29.18,33.39s9.27,33.39,29.18,33.39,29-10.61,29-33.39-8.94-33.39-29-33.39Z"/><path class="cls-1" d="m46.63,95.46C17.87,95.46,0,77.14,0,47.64S17.87.17,46.63.17s46.45,18.19,46.45,47.47-17.8,47.82-46.45,47.82Zm0-93.73C18.83,1.74,1.56,19.33,1.56,47.64s17.27,46.25,45.06,46.25,44.89-17.72,44.89-46.25S74.32,1.74,46.63,1.74Zm0,91.42c-27.34,0-44.32-17.44-44.32-45.51S19.29,2.48,46.63,2.48s44.15,17.31,44.15,45.17-16.92,45.51-44.15,45.51Zm0-89.12C20.25,4.04,3.87,20.75,3.87,47.64s16.38,43.95,42.76,43.95,42.59-16.84,42.59-43.95S72.9,4.04,46.63,4.04Zm0,80.25c-21.71,0-32.26-11.93-32.26-36.47S24.92,11.34,46.63,11.34s32.09,11.59,32.09,36.48-10.5,36.47-32.09,36.47Zm0-71.39c-20.66,0-30.7,11.42-30.7,34.91s10.04,34.91,30.7,34.91,30.52-11.42,30.52-34.91-9.7-34.91-30.52-34.91Zm0,69.08c-20.44,0-29.96-10.86-29.96-34.17S26.19,13.65,46.63,13.65s29.78,10.54,29.78,34.17-9.46,34.17-29.78,34.17Zm0-66.78c-19.37,0-28.39,10.36-28.39,32.61s9.02,32.61,28.39,32.61,28.22-10.36,28.22-32.61-8.7-32.61-28.22-32.61Z"/><path class="cls-1" d="m117.05,74.8v50.35h-14.19V4.86h14.19v16.15c6.03-12.03,17.2-18.9,33.52-18.9,27.67,0,40.44,19.42,40.44,45.71s-12.77,45.71-40.44,45.71c-16.32,0-27.49-6.87-33.52-18.73Zm30.68,7.56c20.04,0,28.91-11.34,28.91-34.54s-8.87-34.54-28.91-34.54c-18.8,0-30.68,10.31-30.68,34.54s11.88,34.54,30.68,34.54Z"/><path class="cls-1" d="m117.83,125.93h-15.75V4.07h15.75v13.9c6.62-10.91,17.87-16.65,32.74-16.65,25.81,0,41.22,17.38,41.22,46.49s-15.02,46.49-41.22,46.49c-14.85,0-26.1-5.7-32.74-16.52v48.14Zm-14.19-1.56h12.62v-52.83l1.48,2.91c6.09,11.98,17.44,18.3,32.82,18.3,25.2,0,39.66-16.38,39.66-44.93S175.77,2.89,150.57,2.89c-15.41,0-26.76,6.39-32.82,18.47l-1.48,2.95V5.64h-12.62v118.73Zm44.09-41.23c-20.59,0-31.47-12.21-31.47-35.32s10.88-35.32,31.47-35.32,29.69,11.55,29.69,35.32-9.43,35.32-29.69,35.32Zm0-69.08c-19.84,0-29.9,11.36-29.9,33.76s10.06,33.76,29.9,33.76,28.13-10.73,28.13-33.76-8.94-33.76-28.13-33.76Z"/><path class="cls-1" d="m118.2,126.3h-16.49V3.7h16.49v12.99c6.76-10.32,17.86-15.74,32.37-15.74,26.04,0,41.59,17.52,41.59,46.86s-15.55,46.86-41.59,46.86c-14.49,0-25.59-5.38-32.37-15.62v47.24Zm-14.19-2.3h11.88v-54.01l2.18,4.28c6.02,11.84,17.26,18.1,32.5,18.1,24.97,0,39.29-16.24,39.29-44.56S175.54,3.26,150.57,3.26c-15.48,0-26.42,6.14-32.49,18.27l-2.18,4.35V6.01h-11.88v117.99Zm43.72-40.49c-20.83,0-31.84-12.34-31.84-35.69s11.01-35.69,31.84-35.69,30.06,11.68,30.06,35.69-9.55,35.69-30.06,35.69Zm0-69.08c-19.6,0-29.53,11.23-29.53,33.39s9.94,33.39,29.53,33.39,27.76-10.3,27.76-33.39-8.82-33.39-27.76-33.39Z"/><path class="cls-1" d="m118.98,127.08h-18.05V2.92h18.05v11.31C125.98,5.02,136.84.17,150.57.17c26.53,0,42.37,17.81,42.37,47.65s-15.84,47.64-42.37,47.64c-13.71,0-24.57-4.81-31.59-13.96v45.58Zm-16.49-1.56h14.93v-49.05l1.43,2.16c6.62,9.99,17.59,15.27,31.72,15.27,25.55,0,40.81-17.23,40.81-46.08S176.12,1.74,150.57,1.74c-14.15,0-25.12,5.32-31.72,15.39l-1.44,2.19V4.49h-14.93v121.04Zm14.19-.74h-13.45V5.22h13.45v17.34l.7-1.4c6.22-12.41,17.39-18.7,33.19-18.7,25.46,0,40.07,16.53,40.07,45.34s-14.6,45.34-40.07,45.34c-15.55,0-27.03-6.41-33.19-18.53l-.7-1.37v51.53Zm-11.88-1.56h10.32v-56.49l3.66,7.19c5.88,11.56,16.87,17.67,31.8,17.67,24.47,0,38.5-15.96,38.5-43.78s-14.03-43.78-38.5-43.78c-15.16,0-25.86,6-31.79,17.83l-3.66,7.31V6.79h-10.32v116.43Zm42.94-38.93c-21.34,0-32.62-12.61-32.62-36.47s11.28-36.48,32.62-36.48,30.84,11.93,30.84,36.48-9.8,36.47-30.84,36.47Zm0-71.39c-20.32,0-31.05,12.07-31.05,34.91s10.74,34.91,31.05,34.91,29.28-11.09,29.28-34.91-9.58-34.91-29.28-34.91Zm0,69.08c-20.12,0-30.31-11.5-30.31-34.17s10.2-34.17,30.31-34.17,28.54,10.86,28.54,34.17-8.8,34.17-28.54,34.17Zm0-66.78c-19.08,0-28.75,10.97-28.75,32.61s9.67,32.61,28.75,32.61,26.98-10.06,26.98-32.61-8.57-32.61-26.98-32.61Z"/><path class="cls-1" d="m203.61,59.67V4.86h14.19v53.27c0,19.07,8.69,24.06,22.17,24.06,18.45,0,28.91-15.98,28.91-44.51V4.86h14.19v85.92h-14.19v-21.65c-5.32,15.12-15.79,24.4-32.99,24.4-22.35,0-32.28-11.34-32.28-33.85Z"/><path class="cls-1" d="m235.88,94.31c-22.25,0-33.06-11.33-33.06-34.64V4.07h15.75v54.06c0,16.53,6.2,23.27,21.39,23.27,18.14,0,28.13-15.53,28.13-43.73V4.07h15.75v87.49h-15.75v-18.32c-6.17,13.99-16.99,21.07-32.21,21.07ZM204.39,5.64v54.04c0,22.56,10.01,33.07,31.5,33.07,15.83,0,26.68-8.03,32.25-23.88l1.52-4.32v25.45h12.63V5.64h-12.63v32.04c0,28.78-10.82,45.29-29.69,45.29-16.09,0-22.95-7.43-22.95-24.84V5.64h-12.62Z"/><path class="cls-1" d="m235.88,94.68c-22.49,0-33.43-11.45-33.43-35.01V3.7h16.49v54.43c0,20.13,10.1,22.91,21.02,22.91,17.9,0,27.76-15.4,27.76-43.36V3.7h16.49v88.23h-16.49v-17.01c-6.33,13.12-17.02,19.76-31.84,19.76ZM204.76,6.01v53.67c0,22.31,9.89,32.7,31.13,32.7,15.65,0,26.39-7.95,31.9-23.63l2.24-6.36v27.24h11.89V6.01h-11.89v31.67c0,29.02-10.96,45.66-30.06,45.66-16.35,0-23.32-7.54-23.32-25.21V6.01h-11.89Z"/><path class="cls-1" d="m235.88,95.46c-23.02,0-34.21-11.71-34.21-35.79V2.92h18.05v55.21c0,18.36,8.09,22.12,20.24,22.12,17.4,0,26.98-15.12,26.98-42.57V2.92h18.06v89.79h-18.06v-14.63c-6.6,11.53-17.04,17.37-31.06,17.37ZM203.24,4.49v55.19c0,23.03,10.68,34.22,32.65,34.22,14.47,0,24.95-6.5,31.13-19.32l1.49-3.08v19.65h14.93V4.49h-14.93v33.19c0,28.46-10.14,44.14-28.54,44.14-10.78,0-21.8-2.81-21.8-23.69V4.49h-14.93Zm32.65,88.67c-21.77,0-31.91-10.64-31.91-33.48V5.22h13.45v52.91c0,17.35,6.53,24.43,22.54,24.43,18.61,0,29.28-16.36,29.28-44.88V5.22h13.45v85.19h-13.45v-23.45l-.72,2.04c-5.64,16.03-16.62,24.15-32.64,24.15ZM205.54,6.79v52.89c0,21.78,9.64,31.92,30.34,31.92,15.28,0,25.77-7.78,31.17-23.11l3.76-10.68v31.04h10.32V6.79h-10.32v30.89c0,29.51-11.24,46.44-30.84,46.44-16.89,0-24.1-7.77-24.1-25.99V6.79h-10.32Z"/><path class="cls-1" d="m337.34,83.04c15.61,0,21.81-5.33,21.81-14.95,0-8.25-4.97-12.72-16.14-14.26l-20.57-2.92c-15.61-2.06-24.12-9.97-24.12-23.2,0-15.98,12.95-25.78,35.47-25.78s36.36,11.34,37.6,27.5h-14.01c-.89-8.94-7.8-17.01-23.94-17.01-15.08,0-21.28,5.84-21.28,14.26,0,6.01,3.01,11.17,14.19,12.72l18.98,2.58c20.22,2.92,27.67,11.34,27.67,25.43,0,17.53-12.41,26.12-36,26.12-29.09,0-40.61-13.4-40.97-31.45h13.12c.89,11.69,7.8,20.97,28.2,20.97Z"/><path class="cls-1" d="m336.98,94.31c-26.51,0-41.34-11.44-41.75-32.21l-.02-.8h14.65l.05.72c1.04,13.62,10,20.24,27.42,20.24,14.35,0,21.03-4.5,21.03-14.17,0-7.85-4.77-12.01-15.46-13.49l-20.58-2.92c-16.22-2.14-24.79-10.43-24.79-23.97,0-16.63,13.55-26.56,36.26-26.56s37.04,10.81,38.38,28.22l.07.84h-15.56l-.07-.7c-.49-4.9-3.72-16.31-23.17-16.31-13.41,0-20.5,4.66-20.5,13.48,0,4.32,1.4,10.27,13.51,11.94l18.98,2.58c19.61,2.83,28.34,10.92,28.34,26.21,0,17.85-12.38,26.9-36.79,26.9Zm-40.16-31.45c.53,13.83,8.07,29.88,40.16,29.88,23.37,0,35.22-8.53,35.22-25.34,0-14.55-8.07-21.92-27-24.66l-18.97-2.58c-10-1.38-14.87-5.8-14.87-13.49,0-5.62,2.87-15.05,22.07-15.05,14.07,0,23.22,6.34,24.64,17.01h12.46c-1.68-16.02-15.67-25.93-36.75-25.93s-34.69,9.34-34.69,25c0,12.64,8.11,20.4,23.44,22.42l20.58,2.92c11.47,1.59,16.81,6.37,16.81,15.04,0,10.59-7.39,15.73-22.6,15.73-17.83,0-27.55-7.05-28.92-20.97h-11.6Z"/><path class="cls-1" d="m336.98,94.68c-26.75,0-41.71-11.57-42.12-32.58l-.02-1.17h15.37l.08,1.06c1.02,13.39,9.87,19.9,27.05,19.9,18.52,0,20.66-7.87,20.66-13.8,0-7.73-4.53-11.65-15.15-13.12l-20.58-2.92c-16.42-2.17-25.11-10.58-25.11-24.34,0-16.86,13.69-26.93,36.62-26.93s37.4,10.94,38.75,28.56l.1,1.24h-16.3l-.1-1.04c-.48-4.8-3.65-15.98-22.8-15.98-9.18,0-20.13,2.28-20.13,13.11,0,4.19,1.37,9.94,13.19,11.58l18.98,2.58c19.83,2.86,28.67,11.06,28.67,26.57,0,18.1-12.5,27.27-37.16,27.27Zm-39.78-31.45c.9,19.08,14.63,29.15,39.78,29.15,23.13,0,34.85-8.4,34.85-24.97,0-14.32-7.98-21.59-26.68-24.29l-18.97-2.58c-10.22-1.41-15.18-5.95-15.18-13.86,0-5.76,2.91-15.42,22.43-15.42,14.14,0,23.38,6.34,24.96,17.01h11.72c-1.85-15.58-15.64-25.19-36.33-25.19s-34.32,9.21-34.32,24.63c0,12.43,7.99,20.06,23.12,22.05l20.59,2.93c11.69,1.62,17.13,6.51,17.13,15.4,0,10.83-7.51,16.1-22.97,16.1-17.91,0-27.75-7.05-29.25-20.97h-10.88Z"/><path class="cls-1" d="m336.98,95.46c-27.24,0-42.48-11.84-42.9-33.34l-.04-1.97h16.89l.14,1.79c.98,12.91,9.57,19.18,26.27,19.18,17.82,0,19.88-7.43,19.88-13.02,0-7.35-4.19-10.92-14.47-12.35l-20.58-2.92c-16.87-2.23-25.78-10.91-25.78-25.11,0-17.35,13.98-27.71,37.41-27.71s38.14,11.22,39.53,29.28l.16,2.08h-17.85l-.17-1.74c-.46-4.59-3.52-15.27-22.02-15.27-8.83,0-19.35,2.14-19.35,12.33,0,4.22,1.42,9.27,12.52,10.8l18.97,2.58c20.29,2.93,29.34,11.37,29.34,27.35,0,18.62-12.76,28.05-37.94,28.05Zm-41.35-33.75v.38c.41,20.51,15.09,31.81,41.35,31.81,24.14,0,36.37-8.91,36.37-26.49,0-15.05-8.63-23-27.99-25.8l-18.97-2.58c-9.33-1.29-13.87-5.33-13.87-12.35,0-9.09,7.23-13.9,20.91-13.9,19.78,0,23.08,11.67,23.58,16.68l.03.33h14.75l-.03-.4c-1.32-17.17-15.87-27.84-37.97-27.84s-35.84,9.77-35.84,26.15c0,13.31,8.45,21.45,24.43,23.56l20.59,2.92c10.94,1.52,15.82,5.8,15.82,13.9,0,6.26-2.22,14.58-21.45,14.58-17.67,0-26.78-6.75-27.83-20.63l-.03-.34h-13.84Zm41.35,31.45c-25.61,0-39.63-10.34-40.56-29.89l-.04-.82h12.41l.07.7c1.45,13.45,11.03,20.27,28.47,20.27,14.93,0,22.18-5.01,22.18-15.32,0-8.42-5.23-13.07-16.45-14.63l-20.59-2.93c-15.56-2.05-23.79-9.95-23.79-22.83,0-15.91,13.12-25.41,35.1-25.41s35.21,9.92,37.11,25.88l.1.87h-13.28l-.1-.67c-1.52-10.24-10.56-16.35-24.19-16.35-18.84,0-21.65,9.17-21.65,14.64,0,7.45,4.75,11.73,14.51,13.08l18.97,2.58c19.18,2.77,27.36,10.27,27.36,25.07,0,17.09-11.99,25.75-35.64,25.75Zm-38.95-29.15c1.24,18.05,14.68,27.58,38.95,27.58,22.61,0,34.07-8.14,34.07-24.19,0-13.85-7.78-20.89-26.01-23.52l-18.96-2.58c-10.67-1.48-15.86-6.26-15.86-14.63,0-6.05,3.02-16.2,23.22-16.2,14.18,0,23.7,6.34,25.63,17.01h10.17c-2.21-14.6-15.69-23.63-35.44-23.63-21,0-33.54,8.91-33.54,23.84,0,11.99,7.76,19.34,22.44,21.28l20.59,2.93c12.14,1.68,17.8,6.82,17.8,16.18,0,11.36-7.77,16.88-23.75,16.88-18.07,0-28.14-7.05-29.95-20.97h-9.36Z"/><path class="cls-1" d="m456.53,42.66v10.48h-70.94v-10.48h70.94Z"/><path class="cls-1" d="m457.31,53.93h-72.51v-12.05h72.51v12.05Zm-70.94-1.56h69.38v-8.92h-69.38v8.92Z"/><path class="cls-1" d="m457.68,54.29h-73.25v-12.78h73.25v12.78Zm-70.94-2.3h68.64v-8.18h-68.64v8.18Z"/><path class="cls-1" d="m458.46,55.08h-74.81v-14.35h74.81v14.35Zm-73.25-1.56h71.68v-11.22h-71.68v11.22Zm70.94-.74h-70.21v-9.74h70.21v9.74Zm-68.64-1.56h67.08v-6.61h-67.08v6.61Z"/><path class="cls-1" d="m507.79,83.04c15.61,0,21.81-5.33,21.81-14.95,0-8.25-4.97-12.72-16.14-14.26l-20.57-2.92c-15.61-2.06-24.12-9.97-24.12-23.2,0-15.98,12.95-25.78,35.47-25.78s36.36,11.34,37.6,27.5h-14.01c-.89-8.94-7.8-17.01-23.94-17.01-15.08,0-21.28,5.84-21.28,14.26,0,6.01,3.01,11.17,14.19,12.72l18.98,2.58c20.22,2.92,27.67,11.34,27.67,25.43,0,17.53-12.41,26.12-36,26.12-29.09,0-40.61-13.4-40.97-31.45h13.12c.89,11.69,7.8,20.97,28.2,20.97Z"/><path class="cls-1" d="m507.44,94.31c-26.52,0-41.34-11.44-41.75-32.21l-.02-.8h14.65l.05.72c1.03,13.62,10,20.24,27.42,20.24,14.35,0,21.03-4.5,21.03-14.17,0-7.85-4.77-12.01-15.46-13.49l-20.58-2.92c-16.22-2.14-24.79-10.43-24.79-23.97,0-16.63,13.55-26.56,36.25-26.56s37.04,10.81,38.38,28.22l.07.84h-15.57l-.07-.7c-.49-4.9-3.72-16.31-23.17-16.31-13.41,0-20.5,4.66-20.5,13.48,0,4.32,1.4,10.27,13.51,11.94l18.98,2.58c19.61,2.83,28.34,10.92,28.34,26.21,0,17.85-12.38,26.9-36.79,26.9Zm-40.17-31.45c.53,13.83,8.07,29.88,40.17,29.88,23.37,0,35.22-8.53,35.22-25.34,0-14.55-8.07-21.92-27-24.66l-18.97-2.58c-10-1.38-14.86-5.8-14.86-13.49,0-5.62,2.87-15.05,22.06-15.05,14.07,0,23.22,6.34,24.64,17.01h12.46c-1.68-16.02-15.67-25.93-36.75-25.93s-34.69,9.34-34.69,25c0,12.64,8.11,20.4,23.44,22.42l20.58,2.92c11.47,1.59,16.81,6.37,16.81,15.04,0,10.59-7.39,15.73-22.6,15.73-17.83,0-27.56-7.05-28.92-20.97h-11.6Z"/><path class="cls-1" d="m507.44,94.68c-26.75,0-41.71-11.57-42.12-32.58l-.02-1.17h15.37l.08,1.06c1.02,13.39,9.87,19.9,27.05,19.9,18.52,0,20.66-7.87,20.66-13.8,0-7.73-4.53-11.65-15.15-13.12l-20.58-2.92c-16.42-2.17-25.11-10.58-25.11-24.34,0-16.86,13.69-26.93,36.62-26.93s37.4,10.94,38.75,28.56l.1,1.24h-16.3l-.1-1.04c-.47-4.8-3.65-15.98-22.8-15.98-9.18,0-20.13,2.28-20.13,13.11,0,4.19,1.37,9.94,13.2,11.58l18.98,2.58c19.83,2.86,28.66,11.06,28.66,26.57,0,18.1-12.5,27.27-37.16,27.27Zm-39.78-31.45c.9,19.08,14.63,29.15,39.78,29.15,23.13,0,34.85-8.4,34.85-24.97,0-14.33-7.98-21.59-26.68-24.29l-18.97-2.58c-10.22-1.41-15.19-5.95-15.19-13.86,0-5.76,2.91-15.42,22.43-15.42,14.14,0,23.38,6.34,24.96,17.01h11.72c-1.85-15.58-15.64-25.19-36.33-25.19s-34.32,9.21-34.32,24.63c0,12.43,8,20.06,23.12,22.05l20.59,2.93c11.68,1.62,17.13,6.51,17.13,15.4,0,10.83-7.51,16.1-22.97,16.1-17.91,0-27.75-7.05-29.25-20.97h-10.88Z"/><path class="cls-1" d="m507.44,95.46c-27.24,0-42.48-11.84-42.9-33.34l-.04-1.97h16.89l.14,1.79c.98,12.91,9.57,19.18,26.27,19.18,17.82,0,19.88-7.43,19.88-13.02,0-7.35-4.19-10.92-14.47-12.35l-20.58-2.92c-16.87-2.23-25.78-10.91-25.78-25.11,0-17.35,13.98-27.71,37.41-27.71s38.14,11.22,39.53,29.28l.16,2.08h-17.85l-.17-1.74c-.46-4.59-3.51-15.27-22.02-15.27-8.83,0-19.35,2.14-19.35,12.33,0,4.22,1.42,9.27,12.52,10.8l18.97,2.58c20.29,2.93,29.34,11.37,29.34,27.35,0,18.62-12.76,28.05-37.94,28.05Zm-41.35-33.75v.38c.41,20.51,15.09,31.81,41.35,31.81,24.14,0,36.37-8.91,36.37-26.49,0-15.05-8.63-23-27.99-25.8l-18.97-2.58c-9.33-1.29-13.87-5.33-13.87-12.35,0-9.09,7.23-13.9,20.91-13.9,19.79,0,23.08,11.67,23.58,16.68l.03.33h14.75l-.03-.4c-1.32-17.17-15.87-27.84-37.97-27.84s-35.84,9.77-35.84,26.15c0,13.31,8.45,21.45,24.43,23.56l20.59,2.92c10.94,1.52,15.82,5.8,15.82,13.9,0,6.26-2.22,14.58-21.45,14.58-17.67,0-26.78-6.75-27.83-20.63l-.03-.34h-13.84Zm41.35,31.45c-25.61,0-39.63-10.34-40.56-29.89l-.04-.82h12.41l.07.7c1.45,13.45,11.03,20.27,28.48,20.27,14.93,0,22.19-5.01,22.19-15.32,0-8.42-5.23-13.07-16.45-14.63l-20.59-2.93c-15.56-2.05-23.79-9.95-23.79-22.83,0-15.91,13.12-25.41,35.1-25.41s35.21,9.92,37.11,25.88l.1.87h-13.28l-.1-.67c-1.52-10.24-10.56-16.35-24.19-16.35-18.84,0-21.65,9.17-21.65,14.64,0,7.45,4.75,11.73,14.51,13.08l18.97,2.58c19.18,2.77,27.36,10.27,27.36,25.07,0,17.09-11.99,25.75-35.64,25.75Zm-38.95-29.15c1.24,18.05,14.68,27.58,38.95,27.58,22.61,0,34.07-8.14,34.07-24.19,0-13.85-7.78-20.89-26.01-23.52l-18.96-2.58c-10.67-1.48-15.86-6.26-15.86-14.63,0-6.05,3.02-16.2,23.22-16.2,14.18,0,23.71,6.34,25.63,17.01h10.17c-2.21-14.6-15.69-23.63-35.44-23.63-21,0-33.54,8.91-33.54,23.84,0,11.98,7.76,19.34,22.44,21.28l20.59,2.93c12.14,1.68,17.8,6.82,17.8,16.18,0,11.36-7.77,16.88-23.75,16.88-18.07,0-28.15-7.05-29.95-20.97h-9.36Z"/><path class="cls-1" d="m570.94,74.8v50.35h-14.19V4.86h14.19v16.15c6.03-12.03,17.2-18.9,33.52-18.9,27.67,0,40.44,19.42,40.44,45.71s-12.77,45.71-40.44,45.71c-16.32,0-27.49-6.87-33.52-18.73Zm30.68,7.56c20.04,0,28.91-11.34,28.91-34.54s-8.87-34.54-28.91-34.54c-18.8,0-30.68,10.31-30.68,34.54s11.88,34.54,30.68,34.54Z"/><path class="cls-1" d="m571.72,125.93h-15.75V4.07h15.75v13.9c6.61-10.91,17.87-16.65,32.74-16.65,25.81,0,41.22,17.38,41.22,46.49s-15.02,46.49-41.22,46.49c-14.85,0-26.1-5.7-32.74-16.51v48.14Zm-14.19-1.56h12.62v-52.84l1.48,2.91c6.09,11.98,17.44,18.3,32.82,18.3,25.2,0,39.66-16.38,39.66-44.93s-14.46-44.93-39.66-44.93c-15.41,0-26.76,6.39-32.82,18.47l-1.48,2.95V5.64h-12.62v118.73Zm44.09-41.23c-20.59,0-31.47-12.21-31.47-35.32s10.88-35.32,31.47-35.32,29.69,11.55,29.69,35.32-9.43,35.32-29.69,35.32Zm0-69.08c-19.84,0-29.9,11.36-29.9,33.76s10.06,33.76,29.9,33.76,28.12-10.73,28.12-33.76-8.94-33.76-28.12-33.76Z"/><path class="cls-1" d="m572.09,126.3h-16.49V3.7h16.49v12.99c6.76-10.32,17.86-15.74,32.37-15.74,26.04,0,41.59,17.52,41.59,46.86s-15.55,46.86-41.59,46.86c-14.49,0-25.59-5.38-32.37-15.62v47.24Zm-14.19-2.3h11.88v-54.01l2.18,4.28c6.02,11.84,17.26,18.1,32.5,18.1,24.97,0,39.29-16.24,39.29-44.56s-14.32-44.56-39.29-44.56c-15.49,0-26.42,6.14-32.49,18.27l-2.18,4.35V6.01h-11.88v117.99Zm43.72-40.49c-20.83,0-31.84-12.34-31.84-35.69s11.01-35.69,31.84-35.69,30.06,11.68,30.06,35.69-9.55,35.69-30.06,35.69Zm0-69.08c-19.6,0-29.53,11.23-29.53,33.39s9.94,33.39,29.53,33.39,27.75-10.3,27.75-33.39-8.82-33.39-27.75-33.39Z"/><path class="cls-1" d="m572.87,127.08h-18.05V2.92h18.05v11.31c7-9.21,17.86-14.06,31.59-14.06,26.53,0,42.37,17.81,42.37,47.65s-15.84,47.64-42.37,47.64c-13.71,0-24.57-4.81-31.59-13.96v45.58Zm-16.49-1.56h14.93v-49.05l1.43,2.16c6.62,9.99,17.59,15.27,31.72,15.27,25.55,0,40.81-17.23,40.81-46.08s-15.25-46.08-40.81-46.08c-14.15,0-25.12,5.32-31.72,15.39l-1.44,2.19V4.49h-14.93v121.04Zm14.19-.74h-13.45V5.22h13.45v17.35l.7-1.4c6.22-12.41,17.38-18.7,33.19-18.7,25.46,0,40.07,16.53,40.07,45.34s-14.6,45.34-40.07,45.34c-15.55,0-27.03-6.41-33.19-18.53l-.7-1.37v51.53Zm-11.88-1.56h10.32v-56.49l3.66,7.2c5.88,11.56,16.88,17.67,31.8,17.67,24.47,0,38.5-15.96,38.5-43.78s-14.03-43.78-38.5-43.78c-15.17,0-25.86,6-31.79,17.83l-3.66,7.3V6.79h-10.32v116.43Zm42.94-38.93c-21.34,0-32.62-12.61-32.62-36.47s11.28-36.48,32.62-36.48,30.84,11.93,30.84,36.48-9.8,36.47-30.84,36.47Zm0-71.39c-20.32,0-31.05,12.07-31.05,34.91s10.74,34.91,31.05,34.91,29.28-11.09,29.28-34.91-9.58-34.91-29.28-34.91Zm0,69.08c-20.12,0-30.32-11.5-30.32-34.17s10.2-34.17,30.32-34.17,28.54,10.86,28.54,34.17-8.8,34.17-28.54,34.17Zm0-66.78c-19.08,0-28.75,10.97-28.75,32.61s9.67,32.61,28.75,32.61,26.97-10.06,26.97-32.61-8.57-32.61-26.97-32.61Z"/><path class="cls-1" d="m654.12,68.1c0-13.92,7.63-22.69,26.96-25.78l22.52-3.61c9.22-1.55,13.13-3.95,13.13-10.48,0-8.76-4.44-15.47-21.82-15.47s-23.77,7.91-24.65,19.07h-14.19c.53-18.22,14.01-29.9,38.49-29.9s35.12,10.83,35.12,26.29v41.24c0,6.19.36,12.89,1.07,21.31h-12.77c-.89-7.39-1.24-13.75-1.24-20.11-3.37,10.31-12.77,22.34-33.35,22.34-17.03,0-29.27-8.59-29.27-24.92Zm31.93,14.09c21.11,0,30.68-15.81,30.68-32.14v-7.39c-4.44,3.09-9.22,4.47-15.96,5.84l-14.72,2.92c-12.06,2.4-17.56,6.87-17.56,16.15,0,9.8,7.27,14.61,17.56,14.61Z"/><path class="cls-1" d="m683.39,93.8c-18.53,0-30.05-9.85-30.05-25.7s8.78-23.54,27.62-26.55l22.52-3.61c9.44-1.58,12.47-3.94,12.47-9.71,0-6.84-2.39-14.68-21.03-14.68-15.08,0-22.89,6-23.87,18.36l-.06.72h-15.72l.02-.8c.56-19.2,15.24-30.66,39.27-30.66s35.9,9.87,35.9,27.07v41.24c0,5.97.33,12.52,1.06,21.24l.07.85h-14.31l-.08-.69c-.68-5.66-1.07-10.91-1.2-16.21-3.57,7.69-12.3,19.14-32.61,19.14Zm11.53-81.82c15.42,0,22.6,5.16,22.6,16.25,0,7.48-5.05,9.79-13.78,11.25l-22.53,3.61c-17.95,2.87-26.3,10.82-26.3,25.01,0,14.89,10.91,24.14,28.48,24.14,22.99,0,30.46-15.25,32.6-21.8l1.53-4.66v4.91c0,6.43.37,12.58,1.15,19.32h11.22c-.69-8.34-1-14.71-1-20.53V28.23c0-16.45-12.19-25.51-34.34-25.51s-36.76,10.31-37.67,28.34h12.66c1.3-12.66,9.83-19.08,25.37-19.08Zm-8.87,70.99c-11.48,0-18.34-5.75-18.34-15.39s5.27-14.34,18.19-16.92l14.72-2.92c6.68-1.36,11.39-2.73,15.67-5.72l1.23-.86v8.89c0,16.38-9.73,32.92-31.47,32.92Zm29.9-38.85c-4.17,2.58-8.76,3.88-15.03,5.16l-14.72,2.92c-12.18,2.43-16.93,6.74-16.93,15.39s6.12,13.82,16.78,13.82c20.66,0,29.9-15.75,29.9-31.35v-5.94Z"/><path class="cls-1" d="m683.39,94.17c-18.76,0-30.41-9.99-30.41-26.07s8.88-23.87,27.93-26.92l22.52-3.61c9.2-1.54,12.16-3.81,12.16-9.35,0-6.66-2.35-14.31-20.66-14.31-14.85,0-22.54,5.89-23.5,18.01l-.08,1.06h-16.44l.03-1.19c.57-19.42,15.38-31.02,39.64-31.02s36.27,10,36.27,27.44v41.24c0,5.97.33,12.51,1.06,21.21l.11,1.25h-15.04l-.12-1.01c-.62-5.14-1-9.94-1.16-14.75-3.98,7.7-12.92,18-32.28,18Zm11.53-82.56c15.67,0,22.97,5.28,22.97,16.62,0,7.74-5.17,10.12-14.09,11.62l-22.53,3.61c-17.97,2.87-25.99,10.47-25.99,24.64,0,14.88,10.51,23.77,28.11,23.77,22.75,0,30.13-15.07,32.25-21.55l2.25-6.87v7.23c0,6.3.36,12.35,1.11,18.96h10.5c-.67-8.16-.97-14.41-.97-20.16V28.23c0-16.21-12.06-25.14-33.97-25.14s-36.2,10.04-37.28,27.6h11.94c1.43-12.66,10.07-19.07,25.7-19.07Zm-8.87,71.73c-11.71,0-18.71-5.89-18.71-15.76s5.53-14.7,18.48-17.28l14.72-2.92c6.63-1.35,11.3-2.71,15.53-5.66l1.81-1.26v9.59c0,16.57-9.84,33.29-31.84,33.29Zm29.53-38.57c-4.06,2.39-8.56,3.64-14.58,4.86l-14.72,2.92c-11.97,2.39-16.63,6.6-16.63,15.02s5.98,13.46,16.41,13.46c21.8,0,29.53-16.69,29.53-30.98v-5.28Z"/><path class="cls-1" d="m683.39,94.95c-19.24,0-31.2-10.29-31.2-26.85s9.08-24.57,28.59-27.69l22.52-3.61c9.78-1.64,11.5-4.07,11.5-8.57,0-6.69-2.36-13.53-19.88-13.53-14.37,0-21.8,5.66-22.72,17.29l-.14,1.78h-17.96l.06-1.99c.58-19.9,15.69-31.78,40.42-31.78s37.05,10.29,37.05,28.23v41.24c0,5.93.33,12.45,1.06,21.15l.18,2.1h-16.59l-.2-1.7c-.51-4.2-.85-8.18-1.05-12.08-4.81,7.8-14.05,16.02-31.62,16.02Zm11.53-81.82c19.22,0,21.45,8.62,21.45,15.1,0,5.96-3.23,8.51-12.81,10.12l-22.53,3.61c-18.6,2.98-27.27,11.28-27.27,26.14,0,15.6,11.36,25.29,29.63,25.29s27.45-9.56,31.59-17.58l1.38-2.66.1,2.99c.16,4.75.54,9.55,1.15,14.69l.04.33h13.5l-.03-.4c-.74-8.74-1.06-15.3-1.06-21.28V28.23c0-16.94-12.93-26.66-35.49-26.66-23.78,0-38.3,11.31-38.85,30.26v.38s14.9,0,14.9,0l.03-.34c1-12.61,8.94-18.73,24.28-18.73Zm-11.53,79.51c-18.09,0-28.89-9.18-28.89-24.55s8.22-22.47,26.65-25.41l22.53-3.61c8.71-1.46,13.43-3.62,13.43-10.85,0-10.8-7.05-15.83-22.19-15.83s-23.54,6.18-24.92,18.38l-.08.69h-13.47l.05-.83c1.1-18.01,14.97-28.33,38.06-28.33s34.75,9.21,34.75,25.92v41.24c0,5.75.3,11.95.96,20.1l.07.85h-12.04l-.08-.69c-.76-6.65-1.12-12.7-1.12-19.04v-2.32l-.72,2.21c-2.17,6.64-9.73,22.09-32.99,22.09Zm11.53-81.82c16.2,0,23.75,5.53,23.75,17.4,0,8.26-5.64,10.86-14.74,12.39l-22.54,3.61c-17.52,2.8-25.33,10.16-25.33,23.87,0,14.39,10.22,22.98,27.33,22.98,22.24,0,29.44-14.69,31.51-21.01l3.77-11.54v12.14c0,6.06.33,11.85,1.03,18.17h8.95c-.62-7.78-.9-13.78-.9-19.38V28.23c0-15.71-11.78-24.36-33.18-24.36s-35.02,9.47-36.44,26.03h10.41c1.71-12.66,10.59-19.07,26.39-19.07Zm-8.87,73.29c-12.2,0-19.49-6.18-19.49-16.54s5.71-15.37,19.11-18.05l14.72-2.92c6.53-1.33,11.12-2.66,15.24-5.53l3.04-2.12v11.09c0,16.96-10.09,34.07-32.62,34.07Zm31.05-42.17l-.58.4c-4.34,3.03-9.09,4.41-15.82,5.78l-14.72,2.92c-12.51,2.5-17.85,7.44-17.85,16.52s6.7,14.98,17.93,14.98c21.45,0,31.05-16.33,31.05-32.51v-8.1Zm-31.05,39.86c-10.92,0-17.19-5.19-17.19-14.24s5-13.34,17.26-15.79l14.72-2.92c5.89-1.2,10.34-2.42,14.34-4.77l1.18-.69v6.65c0,14.65-7.94,31.77-30.31,31.77Zm28.75-35.72c-3.87,2.04-8.16,3.18-13.65,4.3l-14.73,2.92c-11.66,2.33-16,6.19-16,14.26s5.7,12.67,15.62,12.67c21.22,0,28.75-16.27,28.75-30.2v-3.95Z"/><path class="cls-1" d="m784.13,2.11c26.6,0,39.91,14.26,41.32,34.2h-13.3c-2.13-14.09-11-23.03-27.49-23.03-18.8,0-30.5,9.79-30.5,34.54s11.35,34.54,29.97,34.54,27.13-9.79,28.91-24.4h13.48c-1.06,19.76-15.43,35.57-42.39,35.57-29.09,0-44.34-19.42-44.34-45.71s15.61-45.71,44.34-45.71Z"/><path class="cls-1" d="m784.13,94.31c-27.83,0-45.12-17.82-45.12-46.49S756.72,1.32,784.13,1.32c25.18,0,40.52,12.73,42.11,34.92l.06.84h-14.81l-.1-.67c-2.21-14.63-11.45-22.36-26.72-22.36-20,0-29.72,11.04-29.72,33.76s9.55,33.76,29.19,33.76c16.28,0,26.28-8.42,28.13-23.71l.08-.69h15l-.04.82c-1.19,22.06-18.13,36.31-43.17,36.31Zm0-91.42c-26.87,0-43.56,17.22-43.56,44.93s16.69,44.93,43.56,44.93c24.19,0,40.04-13,41.56-34.01h-11.96c-2.18,15.74-12.67,24.4-29.6,24.4-20.7,0-30.76-11.55-30.76-35.32s10.53-35.32,31.29-35.32c15.69,0,25.66,8.17,28.16,23.03h11.79c-1.84-20.75-16.55-32.63-40.48-32.63Z"/><path class="cls-1" d="m784.13,94.68c-28.06,0-45.49-17.96-45.49-46.86S756.5.95,784.13.95c25.4,0,40.88,12.85,42.47,35.27l.09,1.23h-15.53l-.15-.98c-2.18-14.42-11.3-22.05-26.36-22.05-19.75,0-29.35,10.92-29.35,33.39s9.43,33.39,28.82,33.39c16.07,0,25.93-8.31,27.77-23.39l.12-1.01h15.71l-.07,1.21c-1.2,22.27-18.29,36.66-43.54,36.66Zm0-91.42c-26.64,0-43.19,17.08-43.19,44.56s16.55,44.56,43.19,44.56c23.83,0,39.49-12.71,41.16-33.27h-11.24c-2.3,15.75-12.89,24.4-29.92,24.4-20.94,0-31.13-11.68-31.13-35.69s10.65-35.69,31.66-35.69c15.78,0,25.86,8.17,28.47,23.03h11.07c-1.97-20.29-16.51-31.89-40.07-31.89Z"/><path class="cls-1" d="m784.13,95.46c-28.54,0-46.27-18.26-46.27-47.64S756.02.17,784.13.17c25.86,0,41.62,13.12,43.26,35.99l.15,2.07h-17.04l-.25-1.64c-2.12-13.99-10.96-21.38-25.58-21.38-19.23,0-28.57,10.67-28.57,32.61s9.17,32.61,28.04,32.61c15.63,0,25.21-8.06,26.99-22.7l.2-1.7h17.23l-.11,2.04c-1.22,22.72-18.62,37.4-44.32,37.4Zm0-93.73c-27.16,0-44.71,18.09-44.71,46.08s17.13,46.08,44.71,46.08c24.8,0,41.58-14.1,42.76-35.92l.02-.39h-14.2l-.04.32c-1.89,15.53-12.02,24.08-28.54,24.08-19.92,0-29.6-11.18-29.6-34.17s9.86-34.17,30.14-34.17c15.5,0,24.88,7.85,27.13,22.71l.05.31h14.02l-.03-.4c-1.56-21.95-16.76-34.54-41.7-34.54Zm0,91.42c-27.12,0-43.97-17.37-43.97-45.34s16.85-45.34,43.97-45.34c23.95,0,38.83,11.88,40.85,32.6l.08.86h-12.59l-.11-.65c-2.54-14.43-12.38-22.38-27.7-22.38-20.49,0-30.87,11.75-30.87,34.91s9.93,34.91,30.34,34.91c16.56,0,26.91-8.43,29.14-23.73l.1-.67h12.76l-.07.85c-1.7,20.96-17.77,33.99-41.94,33.99Zm0-89.12c-26.16,0-42.41,16.78-42.41,43.78s16.25,43.78,42.41,43.78c22.95,0,38.31-12.12,40.3-31.7h-9.71c-2.56,15.74-13.4,24.4-30.59,24.4-21.47,0-31.91-11.93-31.91-36.47s10.91-36.48,32.44-36.48c15.94,0,26.26,8.17,29.12,23.03h9.55c-2.25-19.29-16.49-30.33-39.2-30.33Z"/><path class="cls-1" d="m834.86,47.64c0-25.61,14.55-45.54,43.99-45.54,26.6,0,41.68,17.7,41.68,42.79,0,2.24,0,3.95-.36,6.01h-71.3c1.06,23.55,12.77,32.14,30.51,32.14s25.36-7.9,28.02-18.73h12.95c-1.77,13.06-12.06,29.21-41.5,29.21s-43.99-19.93-43.99-45.88Zm71.83-7.04c-.71-19.76-11.17-28.01-27.67-28.01s-27.85,7.73-29.8,28.01h57.46Z"/><path class="cls-1" d="m878.85,94.31c-28.03,0-44.77-17.44-44.77-46.66S851.24,1.32,878.85,1.32c25.8,0,42.46,17.1,42.46,43.57,0,2.25,0,4.02-.37,6.15l-.11.65h-71.13c1.17,20.57,10.88,30.57,29.68,30.57,15.13,0,24.31-6.1,27.26-18.13l.15-.6h14.45l-.12.89c-.95,7.01-6.81,29.89-42.28,29.89Zm0-91.42c-26.65,0-43.2,17.15-43.2,44.76s15.75,45.1,43.2,45.1c32.81,0,39.32-20.1,40.59-27.65h-11.43c-3.3,12.43-12.93,18.73-28.63,18.73-20.05,0-30.29-10.76-31.29-32.88l-.04-.82h71.45c.24-1.71.24-3.22.24-5.23,0-25.91-15.67-42.01-40.9-42.01Zm28.66,38.49h-59.14l.08-.86c1.86-19.33,11.86-28.72,30.58-28.72s27.77,9.68,28.45,28.77l.03.81Zm-57.41-1.56h55.78c-.89-17.55-9.91-26.45-26.85-26.45s-26.95,8.65-28.93,26.45Z"/><path class="cls-1" d="m878.85,94.68c-28.26,0-45.14-17.58-45.14-47.04S851.01.95,878.85.95c26.02,0,42.83,17.25,42.83,43.94,0,2.26,0,4.05-.37,6.21l-.17.96h-71.05c1.26,20.07,10.85,29.83,29.29,29.83,14.94,0,23.99-6.01,26.91-17.85l.22-.88h15.16l-.18,1.31c-.96,7.09-6.87,30.21-42.64,30.21Zm0-91.42c-26.42,0-42.83,17.01-42.83,44.39s15.61,44.73,42.83,44.73c31.92,0,38.72-19.15,40.15-26.91h-10.7c-3.42,12.43-13.14,18.73-28.91,18.73-20.29,0-30.65-10.87-31.66-33.24l-.06-1.2h71.51c.2-1.56.2-3,.2-4.86,0-25.68-15.53-41.64-40.53-41.64Zm29.04,38.49h-59.93l.12-1.26c1.88-19.55,12-29.05,30.94-29.05s28.14,10.07,28.82,29.12l.04,1.19Zm-57.38-2.3h54.98c-.99-17.06-9.89-25.71-26.46-25.71s-26.45,8.18-28.51,25.71Z"/><path class="cls-1" d="m878.85,95.46c-28.75,0-45.92-17.87-45.92-47.82S850.53.17,878.85.17c26.49,0,43.61,17.55,43.61,44.72,0,2.3,0,4.12-.38,6.34l-.28,1.61h-70.87c1.43,19.02,10.75,28.27,28.45,28.27,14.53,0,23.33-5.81,26.15-17.26l.36-1.47h16.67l-.3,2.19c-.98,7.25-7.01,30.89-43.41,30.89Zm0-93.73c-27.36,0-44.36,17.59-44.36,45.91s16.58,46.25,44.36,46.25c35.13,0,40.93-22.6,41.87-29.53l.06-.42h-13.66l-.07.28c-3.01,12.24-12.32,18.45-27.67,18.45-18.95,0-28.79-10-30.07-30.57l-.05-.83h71.23l.05-.31c.36-2.09.36-3.85.36-6.07,0-26.22-16.5-43.16-42.05-43.16Zm0,91.42c-27.72,0-43.62-16.59-43.62-45.51s16.71-45.17,43.62-45.17c25.48,0,41.31,16.25,41.31,42.42,0,1.87,0,3.35-.2,4.96l-.09.68h-71.38l.02.38c.99,21.86,11.09,32.49,30.88,32.49,15.37,0,24.85-6.11,28.16-18.16l.16-.57h12.24l-.17.92c-1.53,8.28-8.58,27.55-40.92,27.55Zm0-89.12c-25.94,0-42.05,16.71-42.05,43.6s15.33,43.95,42.05,43.95c30,0,37.38-17.03,39.2-25.35h-9.16c-3.66,12.43-13.59,18.73-29.51,18.73-20.79,0-31.41-11.12-32.44-33.98l-.1-2.02h71.63c.12-1.27.12-2.54.12-4.08,0-25.2-15.23-40.86-39.74-40.86Zm29.85,38.49h-61.6l.2-2.12c1.93-20.03,12.3-29.76,31.72-29.76s28.9,10.33,29.6,29.88l.07,2Zm-59.88-1.56h58.26v-.38c-.68-18.56-10.38-28.37-28.05-28.37s-28.33,9.27-30.16,28.35l-.04.4Zm57.5-.74h-56.69l.1-.87c2.12-18.01,11.42-26.4,29.29-26.4s26.22,8.9,27.24,26.45l.05.83Zm-54.92-1.56h53.26c-1.2-16.02-9.82-24.15-25.63-24.15-16.63,0-25.43,7.68-27.63,24.15Z"/></svg>