{
  "accessors": [
    {
      "bufferView": 0,
      "componentType": 5125,
      "count": 26184,
      "type": "SCALAR"
    },
    {
      "bufferView": 1,
      "componentType": 5126,
      "count": 7304,
      "max": [
        0.0773308548118875,
        0.06789200268865019,
        0.011799999701906929
      ],
      "min": [
        -0.07733085481188752,
        -0.06789200268865017,
        -0.011799999701906929
      ],
      "type": "VEC3"
    },
    {
      "bufferView": 2,
      "componentType": 5126,
      "count": 7304,
      "max": [
        1.0,
        1.0,
        1.0
      ],
      "min": [
        -1.0,
        -1.0,
        -1.0
      ],
      "type": "VEC3"
    },
    {
      "bufferView": 3,
      "componentType": 5126,
      "count": 7304,
      "max": [
        1.0,
        0.9947077906909368
      ],
      "min": [
        0.0,
        0.0
      ],
      "type": "VEC2"
    }
  ],
  "asset": {
    "generator": "Adobe Illustrator",
    "version": "2.0"
  },
  "bufferViews": [
    {
      "buffer": 0,
      "byteLength": 104736,
      "target": 34963
    },
    {
      "buffer": 0,
      "byteLength": 87648,
      "byteOffset": 104736,
      "target": 34962
    },
    {
      "buffer": 0,
      "byteLength": 87648,
      "byteOffset": 192384,
      "target": 34962
    },
    {
      "buffer": 0,
      "byteLength": 58432,
      "byteOffset": 280032,
      "target": 34962
    }
  ],
  "buffers": [
    {
      "byteLength": 338464,
      "uri": "data:application/octet-stream;base64,"
    }
  ],
  "materials": [
    {
      "doubleSided": true,
      "pbrMetallicRoughness": {
        "baseColorFactor": [
          0.0,
          0.0,
          0.0,
          1.0
        ],
        "roughnessFactor": 0.0
      }
    }
  ],
  "meshes": [
    {
      "primitives": [
        {
          "attributes": {
            "NORMAL": 2,
            "POSITION": 1,
            "TEXCOORD_0": 3
          },
          "indices": 0,
          "material": 0,
          "mode": 4
        }
      ]
    }
  ],
  "nodes": [
    {
      "mesh": 0
    }
  ],
  "scenes": [
    {
      "nodes": [
        0
      ]
    }
  ]
}
